<svg width="22" height="22" viewBox="0 0 22 22" fill="none" xmlns="http://www.w3.org/2000/svg">
<path d="M11.0006 0C4.93353 0 0 4.93353 0 11.0006C0 17.0677 4.93353 22 11.0006 22C17.0677 22 22 17.0677 22 11.0006C22 4.93353 17.0677 0 11.0006 0ZM11.0006 1.29531C16.3684 1.29531 20.706 5.63288 20.706 11.0006C20.706 16.3684 16.3684 20.706 11.0006 20.706C5.63288 20.706 1.29531 16.3684 1.29531 11.0006C1.29531 5.63288 5.63288 1.29531 11.0006 1.29531ZM10.3119 3.34884C9.4005 3.34722 8.55763 4.03789 8.6021 4.97271C8.60366 4.98073 8.60537 4.98872 8.60724 4.99668L9.25173 12.6674C9.29859 13.5495 10.1 14.1521 10.9615 14.1472C11.8197 14.1449 12.6154 13.5428 12.6574 12.6624V12.6914L13.3929 5.00554C13.3949 4.99463 13.3966 4.98366 13.3981 4.97267C13.4426 4.03646 12.6012 3.34515 11.6883 3.34879H10.3171L10.3119 3.34884ZM10.3068 4.64289C10.3081 4.64289 10.3106 4.64289 10.3119 4.64289H11.6881C11.6898 4.64289 11.6916 4.64289 11.6933 4.64289C11.9862 4.64171 12.1088 4.80975 12.104 4.91079L11.3685 12.5664C11.3682 12.5777 11.3682 12.5891 11.3685 12.6005C11.3641 12.6935 11.2313 12.8525 10.9578 12.8532C10.6822 12.8548 10.5465 12.6944 10.542 12.6005C10.542 12.6001 10.542 12.6009 10.542 12.6005C10.542 12.6001 10.542 12.5984 10.542 12.598C10.542 12.5975 10.542 12.5984 10.542 12.598C10.542 12.5975 10.542 12.5959 10.542 12.5954C10.542 12.595 10.542 12.5959 10.542 12.5954C10.542 12.595 10.542 12.5933 10.542 12.5929C10.542 12.5925 10.542 12.5933 10.542 12.5929C10.542 12.5925 10.542 12.5908 10.542 12.5904C10.542 12.59 10.542 12.5908 10.542 12.5904C10.542 12.59 10.542 12.5883 10.542 12.5879C10.542 12.5874 10.542 12.5883 10.542 12.5879C10.542 12.5874 10.542 12.5857 10.542 12.5853C10.542 12.5849 10.542 12.5857 10.542 12.5853C10.542 12.5849 10.542 12.5832 10.542 12.5828C10.542 12.5824 10.542 12.5832 10.542 12.5828C10.542 12.5824 10.542 12.5807 10.542 12.5803C10.542 12.5799 10.542 12.5807 10.542 12.5803C10.542 12.5799 10.542 12.5782 10.542 12.5777C10.542 12.5773 10.542 12.5782 10.542 12.5777L9.89754 4.91079C9.89264 4.80986 10.0148 4.64221 10.3068 4.64289ZM11.0006 14.6199C9.89536 14.6199 8.98493 15.5303 8.98493 16.6355C8.98493 17.7407 9.89536 18.6512 11.0006 18.6512C12.1057 18.6512 13.0162 17.7407 13.0162 16.6355C13.0162 15.5303 12.1057 14.6199 11.0006 14.6199ZM10.9626 15.9152C10.9751 15.9146 10.9879 15.9152 11.0006 15.9152C11.4064 15.9152 11.7209 16.2297 11.7209 16.6355C11.7209 17.0414 11.4064 17.3571 11.0006 17.3571C10.5947 17.3571 10.279 17.0414 10.279 16.6355C10.279 16.2424 10.5752 15.9341 10.9626 15.9152Z" fill="#EE4444"/>
</svg>
