<svg width="188" height="188" viewBox="0 0 188 188" fill="none" xmlns="http://www.w3.org/2000/svg">
<g clip-path="url(#clip0_772_11208)">
<rect width="188" height="188" rx="94" fill="#15CD5C"/>
<path d="M94 188C42.085 188 0 145.761 0 94C0 68.9641 9.83006 45.3105 27.4935 27.4935C45.3105 9.83006 68.8105 0 94 0C119.19 0 142.69 9.83006 160.507 27.4935C178.324 45.3105 188 68.8105 188 94C188 119.19 178.17 142.69 160.507 160.507C142.69 178.17 119.036 188 94 188ZM94 7.67974C70.9608 7.67974 49.3039 16.5882 33.0229 33.0229C16.5882 49.3039 7.67974 70.9608 7.67974 94C7.67974 141.614 46.3856 180.32 94 180.32C117.039 180.32 138.696 171.412 154.977 154.977C171.258 138.696 180.32 117.039 180.32 94C180.32 70.9608 171.412 49.3039 154.977 33.0229C138.696 16.5882 117.039 7.67974 94 7.67974Z" fill="white"/>
<path d="M146.683 41.3169L80.7912 147.912C79.4088 150.062 76.3369 150.216 74.9546 148.065L41.3173 101.219C40.0886 99.5293 42.0853 97.379 43.9284 98.4542L75.7225 117.039L143.611 39.013C145.147 37.1699 147.912 39.3202 146.683 41.3169Z" fill="white"/>
</g>
<defs>
<clipPath id="clip0_772_11208">
<rect width="188" height="188" rx="94" fill="white"/>
</clipPath>
</defs>
</svg>
